<mxfile host="app.diagrams.net" agent="Mozilla/5.0 (Macintosh; Intel Mac OS X 10_15_7) AppleWebKit/537.36 (KHTML, like Gecko) Chrome/131.0.0.0 Safari/537.36" version="24.8.6">
  <diagram id="yPxyJZ8AM_hMuL3Unpa9" name="simple gitflow">
    <mxGraphModel dx="1793" dy="981" grid="1" gridSize="10" guides="1" tooltips="1" connect="1" arrows="1" fold="1" page="1" pageScale="1" pageWidth="1100" pageHeight="850" math="0" shadow="0">
      <root>
        <mxCell id="0" />
        <mxCell id="1" parent="0" />
        <mxCell id="9hBKPDzoitwpIBdzFDQ7-23" value="" style="edgeStyle=orthogonalEdgeStyle;rounded=0;html=1;jettySize=auto;orthogonalLoop=1;plain-blue;endArrow=none;endFill=0;strokeWidth=4;strokeColor=#000000;" parent="1" source="9hBKPDzoitwpIBdzFDQ7-25" target="9hBKPDzoitwpIBdzFDQ7-26" edge="1">
          <mxGeometry x="304.5" y="180" as="geometry" />
        </mxCell>
        <mxCell id="9hBKPDzoitwpIBdzFDQ7-24" style="edgeStyle=orthogonalEdgeStyle;curved=1;rounded=0;html=1;exitX=1;exitY=0.5;exitPerimeter=0;entryX=0;entryY=0.5;entryPerimeter=0;endArrow=none;endFill=0;jettySize=auto;orthogonalLoop=1;strokeWidth=4;fontSize=15;" parent="1" source="9hBKPDzoitwpIBdzFDQ7-25" target="9hBKPDzoitwpIBdzFDQ7-30" edge="1">
          <mxGeometry relative="1" as="geometry" />
        </mxCell>
        <mxCell id="9hBKPDzoitwpIBdzFDQ7-25" value="" style="verticalLabelPosition=bottom;verticalAlign=top;html=1;strokeWidth=4;shape=mxgraph.flowchart.on-page_reference;plain-blue;gradientColor=none;fillColor=#B5E3Fe;strokeColor=#000000;" parent="1" vertex="1">
          <mxGeometry x="274.5" y="165" width="30" height="30" as="geometry" />
        </mxCell>
        <mxCell id="9hBKPDzoitwpIBdzFDQ7-41" value="" style="edgeStyle=orthogonalEdgeStyle;curved=1;rounded=0;orthogonalLoop=1;jettySize=auto;html=1;endArrow=none;endFill=0;strokeWidth=4;fontFamily=Courier New;fontSize=16;" parent="1" source="9hBKPDzoitwpIBdzFDQ7-26" target="9hBKPDzoitwpIBdzFDQ7-40" edge="1">
          <mxGeometry relative="1" as="geometry" />
        </mxCell>
        <mxCell id="9hBKPDzoitwpIBdzFDQ7-26" value="" style="verticalLabelPosition=bottom;verticalAlign=top;html=1;strokeWidth=4;shape=mxgraph.flowchart.on-page_reference;plain-blue;gradientColor=none;strokeColor=#000000;" parent="1" vertex="1">
          <mxGeometry x="564.5" y="165" width="30" height="30" as="geometry" />
        </mxCell>
        <mxCell id="9hBKPDzoitwpIBdzFDQ7-52" value="" style="edgeStyle=orthogonalEdgeStyle;curved=1;rounded=0;orthogonalLoop=1;jettySize=auto;html=1;endArrow=none;endFill=0;strokeWidth=4;fontFamily=Courier New;fontSize=16;entryX=0;entryY=0.5;entryDx=0;entryDy=0;entryPerimeter=0;" parent="1" source="9hBKPDzoitwpIBdzFDQ7-40" target="Zibks7oO6CO59rUKJ-Bq-6" edge="1">
          <mxGeometry relative="1" as="geometry">
            <mxPoint x="936.75" y="260" as="targetPoint" />
          </mxGeometry>
        </mxCell>
        <mxCell id="9hBKPDzoitwpIBdzFDQ7-40" value="" style="verticalLabelPosition=bottom;verticalAlign=top;html=1;strokeWidth=4;shape=mxgraph.flowchart.on-page_reference;plain-blue;gradientColor=none;strokeColor=#000000;" parent="1" vertex="1">
          <mxGeometry x="790" y="165" width="30" height="30" as="geometry" />
        </mxCell>
        <mxCell id="9hBKPDzoitwpIBdzFDQ7-56" value="" style="edgeStyle=orthogonalEdgeStyle;curved=1;rounded=0;orthogonalLoop=1;jettySize=auto;html=1;endArrow=none;endFill=0;strokeWidth=4;fontFamily=Courier New;fontSize=16;exitX=1;exitY=0.5;exitDx=0;exitDy=0;exitPerimeter=0;" parent="1" source="9hBKPDzoitwpIBdzFDQ7-40" target="9hBKPDzoitwpIBdzFDQ7-55" edge="1">
          <mxGeometry relative="1" as="geometry">
            <mxPoint x="1010" y="180" as="sourcePoint" />
          </mxGeometry>
        </mxCell>
        <mxCell id="9hBKPDzoitwpIBdzFDQ7-55" value="" style="verticalLabelPosition=bottom;verticalAlign=top;html=1;strokeWidth=4;shape=mxgraph.flowchart.on-page_reference;plain-blue;gradientColor=none;strokeColor=#000000;" parent="1" vertex="1">
          <mxGeometry x="1080" y="165" width="30" height="30" as="geometry" />
        </mxCell>
        <mxCell id="9hBKPDzoitwpIBdzFDQ7-27" value="" style="edgeStyle=orthogonalEdgeStyle;rounded=0;html=1;jettySize=auto;orthogonalLoop=1;strokeWidth=4;endArrow=none;endFill=0;" parent="1" target="9hBKPDzoitwpIBdzFDQ7-25" edge="1">
          <mxGeometry x="204.5" y="180" as="geometry">
            <mxPoint x="100" y="180" as="sourcePoint" />
          </mxGeometry>
        </mxCell>
        <mxCell id="9hBKPDzoitwpIBdzFDQ7-28" value="生命周期" style="text;html=1;strokeColor=none;fillColor=none;align=center;verticalAlign=middle;whiteSpace=wrap;overflow=hidden;fontSize=14;fontStyle=1;fontFamily=Courier New;" parent="1" vertex="1">
          <mxGeometry x="10" y="170" width="70" height="20" as="geometry" />
        </mxCell>
        <mxCell id="9hBKPDzoitwpIBdzFDQ7-29" style="edgeStyle=orthogonalEdgeStyle;curved=1;rounded=0;html=1;exitX=1;exitY=0.5;exitPerimeter=0;entryX=0;entryY=0.5;entryPerimeter=0;endArrow=none;endFill=0;jettySize=auto;orthogonalLoop=1;strokeWidth=4;fontSize=15;" parent="1" source="9hBKPDzoitwpIBdzFDQ7-30" target="9hBKPDzoitwpIBdzFDQ7-32" edge="1">
          <mxGeometry relative="1" as="geometry" />
        </mxCell>
        <mxCell id="9hBKPDzoitwpIBdzFDQ7-30" value="" style="verticalLabelPosition=bottom;verticalAlign=top;html=1;strokeWidth=4;shape=mxgraph.flowchart.on-page_reference;plain-purple;gradientColor=none;strokeColor=#000000;" parent="1" vertex="1">
          <mxGeometry x="347.5" y="245" width="30" height="30" as="geometry" />
        </mxCell>
        <mxCell id="9hBKPDzoitwpIBdzFDQ7-31" style="edgeStyle=orthogonalEdgeStyle;curved=1;rounded=0;html=1;exitX=1;exitY=0.5;exitPerimeter=0;entryX=0;entryY=0.5;entryPerimeter=0;endArrow=none;endFill=0;jettySize=auto;orthogonalLoop=1;strokeWidth=4;fontSize=15;" parent="1" source="9hBKPDzoitwpIBdzFDQ7-32" target="9hBKPDzoitwpIBdzFDQ7-34" edge="1">
          <mxGeometry relative="1" as="geometry" />
        </mxCell>
        <mxCell id="9hBKPDzoitwpIBdzFDQ7-32" value="" style="verticalLabelPosition=bottom;verticalAlign=top;html=1;strokeWidth=4;shape=mxgraph.flowchart.on-page_reference;plain-purple;gradientColor=none;strokeColor=#000000;" parent="1" vertex="1">
          <mxGeometry x="419.5" y="245" width="30" height="30" as="geometry" />
        </mxCell>
        <mxCell id="9hBKPDzoitwpIBdzFDQ7-33" style="edgeStyle=orthogonalEdgeStyle;curved=1;rounded=0;html=1;exitX=1;exitY=0.5;exitPerimeter=0;entryX=0;entryY=0.5;entryPerimeter=0;endArrow=none;endFill=0;jettySize=auto;orthogonalLoop=1;strokeWidth=4;fontSize=15;" parent="1" source="9hBKPDzoitwpIBdzFDQ7-34" target="9hBKPDzoitwpIBdzFDQ7-26" edge="1">
          <mxGeometry relative="1" as="geometry" />
        </mxCell>
        <mxCell id="9hBKPDzoitwpIBdzFDQ7-34" value="" style="verticalLabelPosition=bottom;verticalAlign=top;html=1;strokeWidth=4;shape=mxgraph.flowchart.on-page_reference;plain-purple;gradientColor=none;strokeColor=#000000;" parent="1" vertex="1">
          <mxGeometry x="492.5" y="245" width="30" height="30" as="geometry" />
        </mxCell>
        <mxCell id="9hBKPDzoitwpIBdzFDQ7-39" value="开始创建要素" style="text;html=1;strokeColor=none;fillColor=none;align=center;verticalAlign=middle;whiteSpace=wrap;overflow=hidden;fontSize=14;" parent="1" vertex="1">
          <mxGeometry x="258.38" y="120" width="70" height="40" as="geometry" />
        </mxCell>
        <mxCell id="9hBKPDzoitwpIBdzFDQ7-54" value="" style="edgeStyle=orthogonalEdgeStyle;curved=1;rounded=0;orthogonalLoop=1;jettySize=auto;html=1;endArrow=none;endFill=0;strokeWidth=4;fontFamily=Courier New;fontSize=16;entryX=0;entryY=0.5;entryDx=0;entryDy=0;entryPerimeter=0;exitX=1;exitY=0.5;exitDx=0;exitDy=0;exitPerimeter=0;" parent="1" source="Zibks7oO6CO59rUKJ-Bq-9" target="9hBKPDzoitwpIBdzFDQ7-55" edge="1">
          <mxGeometry relative="1" as="geometry">
            <mxPoint x="1012.25" y="260" as="targetPoint" />
            <mxPoint x="966.75" y="260" as="sourcePoint" />
          </mxGeometry>
        </mxCell>
        <mxCell id="Zibks7oO6CO59rUKJ-Bq-1" value="创建要素完毕" style="text;html=1;strokeColor=none;fillColor=none;align=center;verticalAlign=middle;whiteSpace=wrap;overflow=hidden;fontSize=14;" vertex="1" parent="1">
          <mxGeometry x="540" y="120" width="70" height="40" as="geometry" />
        </mxCell>
        <mxCell id="Zibks7oO6CO59rUKJ-Bq-3" value="开始修改要素" style="text;html=1;strokeColor=none;fillColor=none;align=center;verticalAlign=middle;whiteSpace=wrap;overflow=hidden;fontSize=14;" vertex="1" parent="1">
          <mxGeometry x="770" y="120" width="70" height="40" as="geometry" />
        </mxCell>
        <mxCell id="Zibks7oO6CO59rUKJ-Bq-4" value="修改要素完毕" style="text;html=1;strokeColor=none;fillColor=none;align=center;verticalAlign=middle;whiteSpace=wrap;overflow=hidden;fontSize=14;" vertex="1" parent="1">
          <mxGeometry x="1020" y="120" width="70" height="40" as="geometry" />
        </mxCell>
        <mxCell id="Zibks7oO6CO59rUKJ-Bq-5" style="edgeStyle=orthogonalEdgeStyle;curved=1;rounded=0;html=1;exitX=1;exitY=0.5;exitPerimeter=0;entryX=0;entryY=0.5;entryPerimeter=0;endArrow=none;endFill=0;jettySize=auto;orthogonalLoop=1;strokeWidth=4;fontSize=15;" edge="1" parent="1" source="Zibks7oO6CO59rUKJ-Bq-6" target="Zibks7oO6CO59rUKJ-Bq-8">
          <mxGeometry relative="1" as="geometry" />
        </mxCell>
        <mxCell id="Zibks7oO6CO59rUKJ-Bq-6" value="" style="verticalLabelPosition=bottom;verticalAlign=top;html=1;strokeWidth=4;shape=mxgraph.flowchart.on-page_reference;plain-purple;gradientColor=none;strokeColor=#000000;" vertex="1" parent="1">
          <mxGeometry x="860" y="245" width="30" height="30" as="geometry" />
        </mxCell>
        <mxCell id="Zibks7oO6CO59rUKJ-Bq-7" style="edgeStyle=orthogonalEdgeStyle;curved=1;rounded=0;html=1;exitX=1;exitY=0.5;exitPerimeter=0;entryX=0;entryY=0.5;entryPerimeter=0;endArrow=none;endFill=0;jettySize=auto;orthogonalLoop=1;strokeWidth=4;fontSize=15;" edge="1" parent="1" source="Zibks7oO6CO59rUKJ-Bq-8" target="Zibks7oO6CO59rUKJ-Bq-9">
          <mxGeometry relative="1" as="geometry" />
        </mxCell>
        <mxCell id="Zibks7oO6CO59rUKJ-Bq-8" value="" style="verticalLabelPosition=bottom;verticalAlign=top;html=1;strokeWidth=4;shape=mxgraph.flowchart.on-page_reference;plain-purple;gradientColor=none;strokeColor=#000000;" vertex="1" parent="1">
          <mxGeometry x="932" y="245" width="30" height="30" as="geometry" />
        </mxCell>
        <mxCell id="Zibks7oO6CO59rUKJ-Bq-9" value="" style="verticalLabelPosition=bottom;verticalAlign=top;html=1;strokeWidth=4;shape=mxgraph.flowchart.on-page_reference;plain-purple;gradientColor=none;strokeColor=#000000;" vertex="1" parent="1">
          <mxGeometry x="1005" y="245" width="30" height="30" as="geometry" />
        </mxCell>
        <mxCell id="Zibks7oO6CO59rUKJ-Bq-10" value="" style="edgeStyle=orthogonalEdgeStyle;curved=1;rounded=0;orthogonalLoop=1;jettySize=auto;html=1;endArrow=none;endFill=0;strokeWidth=4;fontFamily=Courier New;fontSize=16;entryX=0;entryY=0.5;entryDx=0;entryDy=0;entryPerimeter=0;" edge="1" parent="1" source="Zibks7oO6CO59rUKJ-Bq-11" target="Zibks7oO6CO59rUKJ-Bq-18">
          <mxGeometry relative="1" as="geometry">
            <mxPoint x="1446.75" y="260" as="targetPoint" />
          </mxGeometry>
        </mxCell>
        <mxCell id="Zibks7oO6CO59rUKJ-Bq-11" value="" style="verticalLabelPosition=bottom;verticalAlign=top;html=1;strokeWidth=4;shape=mxgraph.flowchart.on-page_reference;plain-blue;gradientColor=none;strokeColor=#000000;" vertex="1" parent="1">
          <mxGeometry x="1300" y="165" width="30" height="30" as="geometry" />
        </mxCell>
        <mxCell id="Zibks7oO6CO59rUKJ-Bq-12" value="" style="edgeStyle=orthogonalEdgeStyle;curved=1;rounded=0;orthogonalLoop=1;jettySize=auto;html=1;endArrow=none;endFill=0;strokeWidth=4;fontFamily=Courier New;fontSize=16;exitX=1;exitY=0.5;exitDx=0;exitDy=0;exitPerimeter=0;" edge="1" parent="1" source="Zibks7oO6CO59rUKJ-Bq-11" target="Zibks7oO6CO59rUKJ-Bq-13">
          <mxGeometry relative="1" as="geometry">
            <mxPoint x="1520" y="180" as="sourcePoint" />
          </mxGeometry>
        </mxCell>
        <mxCell id="Zibks7oO6CO59rUKJ-Bq-13" value="" style="verticalLabelPosition=bottom;verticalAlign=top;html=1;strokeWidth=4;shape=mxgraph.flowchart.on-page_reference;plain-blue;gradientColor=none;strokeColor=#000000;" vertex="1" parent="1">
          <mxGeometry x="1590" y="165" width="30" height="30" as="geometry" />
        </mxCell>
        <mxCell id="Zibks7oO6CO59rUKJ-Bq-14" value="" style="edgeStyle=orthogonalEdgeStyle;curved=1;rounded=0;orthogonalLoop=1;jettySize=auto;html=1;endArrow=none;endFill=0;strokeWidth=4;fontFamily=Courier New;fontSize=16;entryX=0;entryY=0.5;entryDx=0;entryDy=0;entryPerimeter=0;exitX=1;exitY=0.5;exitDx=0;exitDy=0;exitPerimeter=0;" edge="1" parent="1" source="Zibks7oO6CO59rUKJ-Bq-21" target="Zibks7oO6CO59rUKJ-Bq-13">
          <mxGeometry relative="1" as="geometry">
            <mxPoint x="1522.25" y="260" as="targetPoint" />
            <mxPoint x="1476.75" y="260" as="sourcePoint" />
          </mxGeometry>
        </mxCell>
        <mxCell id="Zibks7oO6CO59rUKJ-Bq-15" value="开始删除要素" style="text;html=1;strokeColor=none;fillColor=none;align=center;verticalAlign=middle;whiteSpace=wrap;overflow=hidden;fontSize=14;" vertex="1" parent="1">
          <mxGeometry x="1280" y="120" width="70" height="40" as="geometry" />
        </mxCell>
        <mxCell id="Zibks7oO6CO59rUKJ-Bq-16" value="删除要素完毕" style="text;html=1;strokeColor=none;fillColor=none;align=center;verticalAlign=middle;whiteSpace=wrap;overflow=hidden;fontSize=14;" vertex="1" parent="1">
          <mxGeometry x="1530" y="120" width="70" height="40" as="geometry" />
        </mxCell>
        <mxCell id="Zibks7oO6CO59rUKJ-Bq-17" style="edgeStyle=orthogonalEdgeStyle;curved=1;rounded=0;html=1;exitX=1;exitY=0.5;exitPerimeter=0;entryX=0;entryY=0.5;entryPerimeter=0;endArrow=none;endFill=0;jettySize=auto;orthogonalLoop=1;strokeWidth=4;fontSize=15;" edge="1" parent="1" source="Zibks7oO6CO59rUKJ-Bq-18" target="Zibks7oO6CO59rUKJ-Bq-20">
          <mxGeometry relative="1" as="geometry" />
        </mxCell>
        <mxCell id="Zibks7oO6CO59rUKJ-Bq-18" value="" style="verticalLabelPosition=bottom;verticalAlign=top;html=1;strokeWidth=4;shape=mxgraph.flowchart.on-page_reference;plain-purple;gradientColor=none;strokeColor=#000000;" vertex="1" parent="1">
          <mxGeometry x="1370" y="245" width="30" height="30" as="geometry" />
        </mxCell>
        <mxCell id="Zibks7oO6CO59rUKJ-Bq-19" style="edgeStyle=orthogonalEdgeStyle;curved=1;rounded=0;html=1;exitX=1;exitY=0.5;exitPerimeter=0;entryX=0;entryY=0.5;entryPerimeter=0;endArrow=none;endFill=0;jettySize=auto;orthogonalLoop=1;strokeWidth=4;fontSize=15;" edge="1" parent="1" source="Zibks7oO6CO59rUKJ-Bq-20" target="Zibks7oO6CO59rUKJ-Bq-21">
          <mxGeometry relative="1" as="geometry" />
        </mxCell>
        <mxCell id="Zibks7oO6CO59rUKJ-Bq-20" value="" style="verticalLabelPosition=bottom;verticalAlign=top;html=1;strokeWidth=4;shape=mxgraph.flowchart.on-page_reference;plain-purple;gradientColor=none;strokeColor=#000000;" vertex="1" parent="1">
          <mxGeometry x="1442" y="245" width="30" height="30" as="geometry" />
        </mxCell>
        <mxCell id="Zibks7oO6CO59rUKJ-Bq-21" value="" style="verticalLabelPosition=bottom;verticalAlign=top;html=1;strokeWidth=4;shape=mxgraph.flowchart.on-page_reference;plain-purple;gradientColor=none;strokeColor=#000000;" vertex="1" parent="1">
          <mxGeometry x="1515" y="245" width="30" height="30" as="geometry" />
        </mxCell>
        <mxCell id="Zibks7oO6CO59rUKJ-Bq-22" value="" style="edgeStyle=orthogonalEdgeStyle;curved=1;rounded=0;orthogonalLoop=1;jettySize=auto;html=1;endArrow=none;endFill=0;strokeWidth=4;fontFamily=Courier New;fontSize=16;exitX=1;exitY=0.5;exitDx=0;exitDy=0;exitPerimeter=0;entryX=0;entryY=0.5;entryDx=0;entryDy=0;entryPerimeter=0;" edge="1" parent="1" source="9hBKPDzoitwpIBdzFDQ7-55" target="Zibks7oO6CO59rUKJ-Bq-11">
          <mxGeometry relative="1" as="geometry">
            <mxPoint x="1130" y="230" as="sourcePoint" />
            <mxPoint x="1390" y="230" as="targetPoint" />
          </mxGeometry>
        </mxCell>
        <mxCell id="Zibks7oO6CO59rUKJ-Bq-23" value="" style="edgeStyle=orthogonalEdgeStyle;curved=1;rounded=0;orthogonalLoop=1;jettySize=auto;html=1;endArrow=none;endFill=0;strokeWidth=4;fontFamily=Courier New;fontSize=16;exitX=1;exitY=0.5;exitDx=0;exitDy=0;exitPerimeter=0;" edge="1" parent="1" source="Zibks7oO6CO59rUKJ-Bq-13">
          <mxGeometry relative="1" as="geometry">
            <mxPoint x="1630" y="179.5" as="sourcePoint" />
            <mxPoint x="1850" y="180" as="targetPoint" />
          </mxGeometry>
        </mxCell>
        <mxCell id="Zibks7oO6CO59rUKJ-Bq-24" value="防呆" style="text;html=1;strokeColor=none;fillColor=none;align=center;verticalAlign=middle;whiteSpace=wrap;overflow=hidden;fontSize=14;fontStyle=1;fontFamily=Courier New;fontColor=#CC99FF;" vertex="1" parent="1">
          <mxGeometry x="10" y="80" width="70" height="20" as="geometry" />
        </mxCell>
        <mxCell id="Zibks7oO6CO59rUKJ-Bq-25" value="被动维护" style="text;html=1;strokeColor=none;fillColor=none;align=center;verticalAlign=middle;whiteSpace=wrap;overflow=hidden;fontSize=14;fontStyle=1;fontFamily=Courier New;fontColor=#FFB366;" vertex="1" parent="1">
          <mxGeometry x="10" y="320" width="70" height="20" as="geometry" />
        </mxCell>
        <mxCell id="Zibks7oO6CO59rUKJ-Bq-26" value="&lt;font style=&quot;font-size: 14px;&quot;&gt;过滤&lt;br&gt;&lt;br&gt;disable&lt;/font&gt;&lt;div style=&quot;font-size: 14px;&quot;&gt;&lt;font style=&quot;font-size: 14px;&quot;&gt;&lt;br&gt;&lt;/font&gt;&lt;/div&gt;&lt;div style=&quot;font-size: 14px;&quot;&gt;&lt;font style=&quot;font-size: 14px;&quot;&gt;tips&lt;/font&gt;&lt;/div&gt;" style="text;html=1;align=center;verticalAlign=middle;whiteSpace=wrap;rounded=0;fontColor=#CC99FF;" vertex="1" parent="1">
          <mxGeometry x="150" y="40" width="60" height="100" as="geometry" />
        </mxCell>
        <mxCell id="Zibks7oO6CO59rUKJ-Bq-27" value="&lt;span style=&quot;font-size: 14px;&quot;&gt;message&lt;/span&gt;&lt;div&gt;&lt;span style=&quot;font-size: 14px;&quot;&gt;&lt;br&gt;&lt;/span&gt;&lt;/div&gt;&lt;div&gt;&lt;span style=&quot;font-size: 14px;&quot;&gt;confirm&lt;/span&gt;&lt;/div&gt;&lt;div&gt;&lt;span style=&quot;font-size: 14px;&quot;&gt;&lt;br&gt;&lt;/span&gt;&lt;/div&gt;&lt;div&gt;&lt;span style=&quot;font-size: 14px;&quot;&gt;disable&lt;/span&gt;&lt;/div&gt;" style="text;html=1;align=center;verticalAlign=middle;whiteSpace=wrap;rounded=0;fontColor=#CC99FF;" vertex="1" parent="1">
          <mxGeometry x="404.5" y="40" width="60" height="100" as="geometry" />
        </mxCell>
        <mxCell id="Zibks7oO6CO59rUKJ-Bq-28" value="&lt;span style=&quot;font-size: 14px;&quot;&gt;disable&lt;/span&gt;" style="text;html=1;align=center;verticalAlign=middle;whiteSpace=wrap;rounded=0;fontColor=#CC99FF;" vertex="1" parent="1">
          <mxGeometry x="670" y="40" width="60" height="100" as="geometry" />
        </mxCell>
        <mxCell id="Zibks7oO6CO59rUKJ-Bq-29" value="&lt;span style=&quot;font-size: 14px;&quot;&gt;confirm&lt;/span&gt;&lt;div&gt;&lt;span style=&quot;font-size: 14px;&quot;&gt;&lt;br&gt;&lt;/span&gt;&lt;/div&gt;&lt;div&gt;&lt;span style=&quot;font-size: 14px;&quot;&gt;message&lt;/span&gt;&lt;/div&gt;&lt;div&gt;&lt;span style=&quot;font-size: 14px;&quot;&gt;&lt;br&gt;&lt;/span&gt;&lt;/div&gt;&lt;div&gt;&lt;span style=&quot;font-size: 14px;&quot;&gt;disable&lt;/span&gt;&lt;/div&gt;" style="text;html=1;align=center;verticalAlign=middle;whiteSpace=wrap;rounded=0;fontColor=#CC99FF;" vertex="1" parent="1">
          <mxGeometry x="917" y="40" width="60" height="100" as="geometry" />
        </mxCell>
        <mxCell id="Zibks7oO6CO59rUKJ-Bq-30" value="&lt;span style=&quot;font-size: 14px;&quot;&gt;disable&lt;/span&gt;" style="text;html=1;align=center;verticalAlign=middle;whiteSpace=wrap;rounded=0;fontColor=#CC99FF;" vertex="1" parent="1">
          <mxGeometry x="1180" y="40" width="60" height="100" as="geometry" />
        </mxCell>
        <mxCell id="Zibks7oO6CO59rUKJ-Bq-32" value="&lt;span style=&quot;font-size: 14px;&quot;&gt;confirm&lt;/span&gt;&lt;div&gt;&lt;span style=&quot;font-size: 14px;&quot;&gt;&lt;br&gt;&lt;/span&gt;&lt;/div&gt;&lt;div&gt;&lt;span style=&quot;font-size: 14px;&quot;&gt;message&lt;/span&gt;&lt;/div&gt;&lt;div&gt;&lt;span style=&quot;font-size: 14px;&quot;&gt;&lt;br&gt;&lt;/span&gt;&lt;/div&gt;&lt;div&gt;&lt;span style=&quot;font-size: 14px;&quot;&gt;disable&lt;/span&gt;&lt;/div&gt;" style="text;html=1;align=center;verticalAlign=middle;whiteSpace=wrap;rounded=0;fontColor=#CC99FF;" vertex="1" parent="1">
          <mxGeometry x="1427" y="40" width="60" height="100" as="geometry" />
        </mxCell>
        <mxCell id="Zibks7oO6CO59rUKJ-Bq-33" value="&lt;font color=&quot;#ffb366&quot;&gt;&lt;span style=&quot;font-size: 14px;&quot;&gt;属性变更&lt;/span&gt;&lt;/font&gt;" style="text;html=1;align=center;verticalAlign=middle;whiteSpace=wrap;rounded=0;fontColor=#CC99FF;" vertex="1" parent="1">
          <mxGeometry x="404.5" y="280" width="60" height="100" as="geometry" />
        </mxCell>
        <mxCell id="Zibks7oO6CO59rUKJ-Bq-34" value="&lt;font color=&quot;#ffb366&quot;&gt;&lt;span style=&quot;font-size: 14px;&quot;&gt;属性变更&lt;/span&gt;&lt;/font&gt;&lt;div&gt;&lt;font color=&quot;#ffb366&quot;&gt;&lt;span style=&quot;font-size: 14px;&quot;&gt;&lt;br&gt;&lt;/span&gt;&lt;/font&gt;&lt;/div&gt;&lt;div&gt;&lt;font color=&quot;#ffb366&quot;&gt;&lt;span style=&quot;font-size: 14px;&quot;&gt;进入模式&lt;/span&gt;&lt;/font&gt;&lt;/div&gt;&lt;div&gt;&lt;font color=&quot;#ffb366&quot;&gt;&lt;span style=&quot;font-size: 14px;&quot;&gt;&lt;br&gt;&lt;/span&gt;&lt;/font&gt;&lt;/div&gt;&lt;div&gt;&lt;font color=&quot;#ffb366&quot;&gt;&lt;span style=&quot;font-size: 14px;&quot;&gt;地图重绘&lt;/span&gt;&lt;/font&gt;&lt;/div&gt;" style="text;html=1;align=center;verticalAlign=middle;whiteSpace=wrap;rounded=0;fontColor=#CC99FF;" vertex="1" parent="1">
          <mxGeometry x="670" y="280" width="60" height="100" as="geometry" />
        </mxCell>
        <mxCell id="Zibks7oO6CO59rUKJ-Bq-35" value="&lt;font color=&quot;#ffb366&quot;&gt;&lt;span style=&quot;font-size: 14px;&quot;&gt;属性变更&lt;/span&gt;&lt;/font&gt;" style="text;html=1;align=center;verticalAlign=middle;whiteSpace=wrap;rounded=0;fontColor=#CC99FF;" vertex="1" parent="1">
          <mxGeometry x="917" y="280" width="60" height="100" as="geometry" />
        </mxCell>
        <mxCell id="Zibks7oO6CO59rUKJ-Bq-36" value="&lt;font color=&quot;#ffb366&quot;&gt;&lt;span style=&quot;font-size: 14px;&quot;&gt;属性变更&lt;/span&gt;&lt;/font&gt;&lt;div&gt;&lt;font color=&quot;#ffb366&quot;&gt;&lt;span style=&quot;font-size: 14px;&quot;&gt;&lt;br&gt;&lt;/span&gt;&lt;/font&gt;&lt;/div&gt;&lt;div&gt;&lt;font color=&quot;#ffb366&quot;&gt;&lt;span style=&quot;font-size: 14px;&quot;&gt;关系删除&lt;/span&gt;&lt;/font&gt;&lt;/div&gt;" style="text;html=1;align=center;verticalAlign=middle;whiteSpace=wrap;rounded=0;fontColor=#CC99FF;" vertex="1" parent="1">
          <mxGeometry x="1427" y="290" width="60" height="100" as="geometry" />
        </mxCell>
        <mxCell id="Zibks7oO6CO59rUKJ-Bq-37" value="&lt;font color=&quot;#ffb366&quot;&gt;&lt;span style=&quot;font-size: 14px;&quot;&gt;地图重绘&lt;/span&gt;&lt;/font&gt;" style="text;html=1;align=center;verticalAlign=middle;whiteSpace=wrap;rounded=0;fontColor=#CC99FF;" vertex="1" parent="1">
          <mxGeometry x="1680" y="290" width="60" height="100" as="geometry" />
        </mxCell>
      </root>
    </mxGraphModel>
  </diagram>
</mxfile>
